<?xml version="1.0" ?><svg style="enable-background:new 0 0 512 512;" version="1.1" viewBox="0 0 512 512" xml:space="preserve" xmlns="http://www.w3.org/2000/svg" xmlns:xlink="http://www.w3.org/1999/xlink"><style type="text/css">
	.st0{fill:#16ADE1;}
	.st1{fill:#1B3954;}
</style><g id="Layer_1"/><g id="Layer_2"><g><path class="st0" d="M396.9,64.3C365.8,33.2,318.7,27.8,282,48.2l131,131C433.4,142.5,428,95.5,396.9,64.3z"/><path class="st1" d="M391,218.3c3.2,3.2,7.5,4.9,11.7,4.9c4.2,0,8.5-1.6,11.7-4.9c6.5-6.5,6.5-17,0-23.5L268.3,48.6    c-3.2-3.2-7.5-4.9-11.7-4.9c-4.2,0-8.5,1.6-11.7,4.9c-6.5,6.5-6.5,17,0,23.5L391,218.3z"/><path class="st0" d="M260.6,200.6c17.8,17.8,40.8,27.2,64.1,28.1c17.4,0.7,35-3.3,50.7-12l-131-131c-8.5,15.3-12.5,32.5-12,49.6    C233.1,159.1,242.5,182.5,260.6,200.6z"/><path class="st1" d="M314.3,237.9c-22.9-3.1-44.2-13.6-60.8-30.2c-16.8-16.8-27.4-38.4-30.3-61.7L85.5,304.2l71.1,71.1    L314.3,237.9z M209.7,217.9l33.1,33.1l-25.8,25.8c0,0,0,0,0,0l-33.1-33.1L209.7,217.9z M176.8,250.8    C176.8,250.8,176.8,250.8,176.8,250.8l33.1,33.1c0,0,0,0,0,0l-25.8,25.8L151,276.6L176.8,250.8z"/><path class="st0" d="M449.8,380.8c-5.6-20.4-18.7-36.3-35-42.5c-16.5-6.3-36.8-3.4-55.8,8.2c-12.3,7.5-22.8,17.5-32.9,27.1    c-2.9,2.7-5.8,5.6-8.8,8.3c-45.5,41.9-104.1,70.8-165,81.5c-17.4,3-42.7,5.7-61.6-6.1C76.1,448,67,430.1,68.4,412.7    c0.8-10,5-19.9,11.9-27.9c2.6-3,5.9-5.4,9.3-7.9c4.3-3.1,8.6-6.3,12.2-10.9c10,7.3,23.2,8.2,34,2.7l-43.8-43.8    c-5.5,10.8-4.6,24,2.7,34c-0.3,0.2-0.5,0.5-0.8,0.8c-2.6,3.5-6.3,6.2-10.3,9.1c-3.8,2.8-7.7,5.6-11,9.4    c-8.3,9.6-13.4,21.5-14.4,33.7c-1.6,21,9.3,42.6,27.2,53.8c12.5,7.8,26.9,10.2,40.6,10.2c10.2,0,19.9-1.3,28.1-2.8    c62.8-11,123.1-40.8,170-84c3-2.8,6-5.6,8.9-8.4c9.7-9.3,19.8-18.9,31.2-25.8c16.3-9.9,33.4-12.6,47-7.4    c13.3,5.1,24.2,18.5,28.9,35.9c4.5,16.5,3.7,34.6,2.9,50.6c-0.1,2.8,2,5.1,4.8,5.2c2.8,0.1,5.1-2,5.2-4.8    C453.9,417.7,454.8,398.8,449.8,380.8z"/></g></g></svg>